<svg width="390" height="293" viewBox="0 0 390 293" fill="none" xmlns="http://www.w3.org/2000/svg">
<path d="M338 216.437H55V216.579H338V216.437Z" fill="#EBEBEB"/>
<path d="M309.644 225.548H290.897V225.689H309.644V225.548Z" fill="#EBEBEB"/>
<path d="M242.47 227.084H237.55V227.225H242.47V227.084Z" fill="#EBEBEB"/>
<path d="M290.33 220.292H279.468V220.433H290.33V220.292Z" fill="#EBEBEB"/>
<path d="M109.139 221.243H84.6918V221.384H109.139V221.243Z" fill="#EBEBEB"/>
<path d="M117.763 221.243H114.179V221.384H117.763V221.243Z" fill="#EBEBEB"/>
<path d="M182.433 223.633H129.413V223.774H182.433V223.633Z" fill="#EBEBEB"/>
<path d="M189.15 191.195H79.856C78.0748 191.195 76.6253 189.745 76.6253 187.964V34.3335C76.6253 32.5523 78.0748 31.1028 79.856 31.1028H189.15C190.931 31.1028 192.38 32.5523 192.38 34.3335V187.964C192.38 189.745 190.931 191.195 189.15 191.195ZM79.856 31.2449C78.1524 31.2449 76.7668 32.6304 76.7668 34.3341V187.965C76.7668 189.668 78.1524 191.054 79.856 191.054H189.15C190.853 191.054 192.239 189.668 192.239 187.965V34.3335C192.239 32.6304 190.853 31.2443 189.15 31.2443L79.856 31.2449Z" fill="#EBEBEB"/>
<path d="M311.573 191.195H202.28C200.499 191.195 199.05 189.745 199.05 187.964V34.3335C199.05 32.5523 200.499 31.1028 202.28 31.1028H311.573C313.355 31.1028 314.804 32.5523 314.804 34.3335V187.964C314.805 189.745 313.355 191.195 311.573 191.195ZM202.28 31.2449C200.577 31.2449 199.191 32.6304 199.191 34.3341V187.965C199.191 189.668 200.577 191.054 202.28 191.054H311.573C313.277 191.054 314.663 189.668 314.663 187.965V34.3335C314.663 32.6304 313.277 31.2443 311.573 31.2443L202.28 31.2449Z" fill="#EBEBEB"/>
<path d="M258.377 107.683C274.764 107.683 288.049 94.3986 288.049 78.0112C288.049 61.6238 274.764 48.3392 258.377 48.3392C241.99 48.3392 228.705 61.6238 228.705 78.0112C228.705 94.3986 241.99 107.683 258.377 107.683Z" fill="#E0E0E0"/>
<path d="M256.125 107.683C272.512 107.683 285.797 94.3986 285.797 78.0112C285.797 61.6238 272.512 48.3392 256.125 48.3392C239.737 48.3392 226.453 61.6238 226.453 78.0112C226.453 94.3986 239.737 107.683 256.125 107.683Z" fill="#F5F5F5"/>
<path d="M275.512 97.401C286.22 86.6928 286.22 69.3313 275.512 58.623C264.804 47.9148 247.442 47.9148 236.734 58.623C226.026 69.3313 226.026 86.6928 236.734 97.401C247.442 108.109 264.804 108.109 275.512 97.401Z" fill="white"/>
<path d="M260.795 97.9706C260.496 97.9706 260.223 97.7663 260.149 97.4618L255.478 78.1674C255.392 77.8108 255.611 77.4514 255.968 77.3648C256.323 77.2771 256.684 77.4973 256.77 77.8544L261.442 97.1488C261.528 97.5054 261.309 97.8648 260.952 97.9514C260.9 97.965 260.847 97.9706 260.795 97.9706Z" fill="#F5F5F5"/>
<path d="M256.125 79.3407C255.784 79.3407 255.444 79.2111 255.185 78.9513L239.138 62.9052C238.619 62.3862 238.619 61.5446 239.138 61.0256C239.658 60.506 240.499 60.506 241.019 61.0256L256.125 76.131L264.934 67.3223C265.454 66.8027 266.295 66.8027 266.814 67.3223C267.333 67.8413 267.333 68.683 266.814 69.202L257.065 78.9513C256.805 79.2111 256.465 79.3407 256.125 79.3407Z" fill="#EBEBEB"/>
<path d="M180.37 212.305H184.839V181.686H180.37V212.305Z" fill="#F0F0F0"/>
<path d="M89.9223 216.437H181.888V212.305H89.9223V216.437Z" fill="#F0F0F0"/>
<path d="M180.37 181.686H86.9716V212.306H180.37V181.686Z" fill="#F5F5F5"/>
<path d="M174.327 187.015H93.0141V204.503H174.327V187.015Z" fill="#F0F0F0"/>
<path d="M113.888 189.359H153.453C154.191 189.359 154.794 188.756 154.794 188.019V187.767C154.794 187.03 154.19 186.426 153.453 186.426H113.888C113.151 186.426 112.547 187.03 112.547 187.767V188.019C112.547 188.756 113.151 189.359 113.888 189.359Z" fill="#F5F5F5"/>
<path d="M84.9238 181.686H180.37V178.95H84.9238V181.686Z" fill="#F0F0F0"/>
<path d="M186.988 178.951H180.37V181.686H186.988V178.951Z" fill="#E6E6E6"/>
<path d="M298.201 149.356H289.486V216.438H298.201V149.356Z" fill="#F0F0F0"/>
<path d="M213.197 216.437H289.486V149.356H213.197V216.437Z" fill="#F5F5F5"/>
<path d="M212.5 210.549H279.481V174.671H212.5V210.549Z" fill="#FAFAFA"/>
<path d="M212.5 170.864H279.481V159.052H212.5V170.864Z" fill="#FAFAFA"/>
<path opacity="0.7" d="M280.08 174.67H279.482V210.548H280.08V174.67Z" fill="#E6E6E6"/>
<path opacity="0.7" d="M280.08 159.051H279.482V170.863H280.08V159.051Z" fill="#E6E6E6"/>
<path opacity="0.7" d="M298.201 152.187H213.004V153.704H298.201V152.187Z" fill="#E6E6E6"/>
<path d="M299.219 148.438H289.486V152.825H299.219V148.438Z" fill="#F0F0F0"/>
<path d="M212.179 152.825H289.486V148.438H212.179V152.825Z" fill="#F5F5F5"/>
<path d="M241.181 135.523C240.615 134.728 240.351 133.754 240.163 132.795C240.019 131.829 239.946 130.838 240.014 129.862C240.135 127.909 240.56 125.978 241.247 124.171C241.55 123.248 241.991 122.39 242.38 121.508C242.83 120.659 243.288 119.814 243.793 119C244.324 118.202 244.866 117.414 245.444 116.655C246.06 115.92 246.669 115.185 247.345 114.504C247.018 115.416 246.624 116.274 246.237 117.131C245.848 117.987 245.501 118.859 245.1 119.696L244.007 122.247L243.504 123.531L243.241 124.167L243.017 124.814C242.363 126.525 241.857 128.27 241.479 130.045C241.288 130.933 241.155 131.831 241.083 132.744C241.012 133.657 241.007 134.581 241.181 135.523Z" fill="#E6E6E6"/>
<path d="M230.193 137.022C230.243 135.573 230.154 134.209 229.838 132.952C229.527 131.697 228.97 130.585 228.178 129.647C227.376 128.715 226.348 127.948 225.188 127.292C224.033 126.622 222.753 126.091 221.431 125.473C222.881 125.318 224.358 125.465 225.78 125.934C226.492 126.167 227.186 126.489 227.841 126.898C228.489 127.319 229.094 127.828 229.614 128.428C230.646 129.64 231.239 131.216 231.3 132.75C231.362 134.284 230.992 135.792 230.193 137.022Z" fill="#E6E6E6"/>
<path d="M230.685 136.825C230.626 135.176 230.493 133.601 230.236 132.071C229.978 130.546 229.598 129.071 228.998 127.707C228.411 126.336 227.612 125.08 226.602 123.95C225.589 122.818 224.365 121.842 223.022 120.87C224.658 121.114 226.251 121.806 227.608 122.864C228.96 123.929 230.05 125.365 230.726 126.961C231.422 128.552 231.714 130.277 231.707 131.959C231.685 133.641 231.394 135.317 230.685 136.825Z" fill="#E6E6E6"/>
<path d="M240.427 133.933C239.166 132.351 238.182 130.586 237.314 128.776C236.46 126.957 235.762 125.064 235.214 123.125C234.652 121.191 234.306 119.189 234.121 117.18C233.948 115.169 234.022 113.125 234.399 111.147C234.812 113.13 235.127 115.051 235.585 116.956C236.033 118.857 236.486 120.745 237.027 122.619C237.554 124.494 238.109 126.365 238.69 128.241C239.263 130.122 239.866 131.996 240.427 133.933Z" fill="#E6E6E6"/>
<path d="M239.919 133.791C238.484 132.439 237.289 130.878 236.193 129.261C235.11 127.633 234.161 125.915 233.346 124.132C232.522 122.353 231.885 120.483 231.4 118.579C230.933 116.669 230.68 114.695 230.747 112.731C231.459 114.572 232.079 116.365 232.809 118.126C233.537 119.883 234.264 121.629 235.06 123.354C235.847 125.081 236.653 126.803 237.476 128.531C238.292 130.265 239.128 131.992 239.919 133.791Z" fill="#E6E6E6"/>
<path d="M242.022 135.601C240.411 134.787 238.981 133.694 237.639 132.515C236.307 131.322 235.089 129.999 233.995 128.575C232.889 127.162 231.963 125.6 231.187 123.978C230.423 122.348 229.884 120.6 229.659 118.82C230.631 120.343 231.491 121.831 232.478 123.252C233.457 124.671 234.433 126.076 235.492 127.433C236.538 128.797 237.609 130.147 238.705 131.494C239.798 132.847 240.916 134.185 242.022 135.601Z" fill="#E6E6E6"/>
<path d="M238.944 133.8C237.384 133.196 235.987 132.257 234.709 131.199C233.431 130.134 232.285 128.907 231.292 127.566C230.779 126.906 230.349 126.186 229.911 125.477C229.525 124.734 229.11 124.01 228.818 123.223C228.159 121.692 227.774 120.043 227.637 118.391C228.524 119.812 229.255 121.22 230.135 122.546C230.535 123.228 231.006 123.865 231.424 124.529C231.892 125.163 232.314 125.825 232.802 126.443C233.735 127.707 234.715 128.941 235.746 130.151C236.774 131.369 237.837 132.561 238.944 133.8Z" fill="#E6E6E6"/>
<path d="M241.36 134.771C240.617 134.296 240.086 133.532 239.673 132.743C239.295 131.936 238.989 131.071 238.855 130.187C238.562 128.419 238.636 126.605 239.001 124.89C239.163 124.025 239.431 123.192 239.682 122.358C240.002 121.55 240.291 120.729 240.677 119.955C241.074 119.187 241.472 118.421 241.929 117.692C242.417 116.977 242.896 116.264 243.449 115.598C243.269 116.455 243.016 117.265 242.77 118.074C242.513 118.876 242.322 119.698 242.059 120.486C241.82 121.282 241.632 122.087 241.392 122.874L241.114 124.068C241.019 124.465 240.901 124.858 240.848 125.259C240.506 126.849 240.326 128.446 240.324 130.043C240.316 130.844 240.393 131.64 240.54 132.437C240.688 133.234 240.932 134.02 241.36 134.771Z" fill="#E6E6E6"/>
<path d="M240.31 132.965C239.043 131.687 238.207 130.018 237.686 128.275C237.181 126.524 236.986 124.654 237.193 122.823C237.224 122.363 237.337 121.915 237.409 121.461L237.542 120.786L237.741 120.128C237.885 119.693 238.011 119.253 238.175 118.828C238.362 118.412 238.557 118.001 238.754 117.593L239.055 116.985L239.423 116.414L240.174 115.294C240.73 114.59 241.343 113.931 241.979 113.315C241.684 114.174 241.293 114.946 240.979 115.75L240.531 116.956L240.3 117.548L240.123 118.158C240.002 118.562 239.879 118.962 239.748 119.358L239.47 120.574L239.325 121.178L239.239 121.792C239.185 122.201 239.085 122.605 239.065 123.016C238.878 124.655 238.927 126.308 239.129 127.966C239.331 129.631 239.721 131.286 240.31 132.965Z" fill="#E6E6E6"/>
<path d="M237.92 132.275L229.808 125.057L231.01 134.854L237.92 132.275Z" fill="#E6E6E6"/>
<path d="M222.29 130.958H245.82L242.739 148.438H225.371L222.29 130.958Z" fill="#F5F5F5"/>
<path d="M236.989 130.958H245.82L242.739 148.438H238.101L236.989 130.958Z" fill="#EBEBEB"/>
<path d="M266.607 135.559C266.72 134.749 266.678 133.98 266.51 133.239C266.348 132.502 266.129 131.795 265.81 131.123C265.191 129.779 264.379 128.527 263.416 127.357C263.204 127.046 262.927 126.777 262.68 126.488C262.429 126.201 262.19 125.904 261.928 125.623C261.38 125.082 260.877 124.493 260.319 123.948C259.752 123.412 259.221 122.827 258.651 122.274C258.085 121.715 257.51 121.16 256.976 120.527C257.742 120.811 258.468 121.172 259.202 121.531C259.926 121.904 260.593 122.371 261.276 122.819C261.623 123.038 261.932 123.307 262.25 123.566C262.569 123.824 262.878 124.095 263.192 124.362C263.778 124.942 264.367 125.526 264.886 126.181C265.942 127.467 266.777 128.997 267.209 130.654C267.428 131.479 267.501 132.353 267.429 133.202C267.348 134.044 267.112 134.898 266.607 135.559Z" fill="#E6E6E6"/>
<path d="M279.836 133.187C279.242 132.703 278.826 132.008 278.561 131.25C278.412 130.871 278.37 130.465 278.31 130.054C278.294 129.849 278.31 129.643 278.314 129.435C278.322 129.227 278.315 129.013 278.372 128.814C278.657 127.157 279.632 125.726 280.771 124.648C281.057 124.375 281.374 124.151 281.676 123.903C281.988 123.669 282.286 123.413 282.625 123.234C282.958 123.042 283.286 122.845 283.622 122.663C283.79 122.572 283.954 122.473 284.125 122.391L284.649 122.172C284.999 122.027 285.351 121.888 285.703 121.755C286.054 121.617 286.409 121.495 286.778 121.411C287.513 121.236 288.241 121.057 288.99 120.962C288.393 121.446 287.775 121.847 287.164 122.251C286.851 122.438 286.553 122.649 286.259 122.861C285.963 123.069 285.665 123.271 285.366 123.467C284.75 123.836 284.224 124.307 283.645 124.701C283.349 124.892 283.1 125.129 282.84 125.353C282.583 125.578 282.3 125.782 282.061 126.019C281.082 126.95 280.261 127.975 279.803 129.169C279.674 129.465 279.631 129.78 279.54 130.098C279.512 130.418 279.442 130.751 279.464 131.088C279.458 131.768 279.589 132.471 279.836 133.187Z" fill="#E6E6E6"/>
<path d="M279.23 133.187C278.199 131.915 277.691 130.234 277.65 128.542C277.605 126.839 278.084 125.121 278.915 123.636L279.595 122.559C279.856 122.228 280.134 121.912 280.408 121.595L280.825 121.125L281.295 120.715C281.608 120.442 281.926 120.177 282.244 119.916C282.917 119.444 283.622 119.022 284.329 118.631C285.081 118.309 285.823 117.987 286.594 117.748C286.031 118.35 285.439 118.87 284.858 119.389C284.316 119.956 283.758 120.485 283.226 121.025C282.98 121.315 282.733 121.599 282.481 121.877L282.103 122.292L281.777 122.742C281.562 123.042 281.326 123.326 281.117 123.627L280.554 124.561C279.852 125.825 279.344 127.178 279.123 128.627C278.894 130.076 278.918 131.602 279.23 133.187Z" fill="#E6E6E6"/>
<path d="M267.33 134.023C267.797 132.273 268.311 130.588 268.801 128.902C269.297 127.22 269.774 125.548 270.217 123.873C270.641 122.193 271.023 120.514 271.35 118.811C271.646 117.104 271.845 115.392 272.001 113.578C272.629 115.283 272.834 117.13 272.823 118.956C272.763 120.779 272.487 122.589 272.039 124.347C271.573 126.099 270.949 127.802 270.178 129.431C269.392 131.052 268.496 132.627 267.33 134.023Z" fill="#E6E6E6"/>
<path d="M267.917 133.742C268.652 132.016 269.445 130.367 270.225 128.717C271.009 127.072 271.794 125.44 272.55 123.801C273.293 122.157 274.023 120.514 274.697 118.841C275.358 117.161 275.947 115.465 276.515 113.671C276.734 115.54 276.511 117.442 276.11 119.281C275.675 121.113 275.032 122.885 274.259 124.588C273.474 126.286 272.547 127.91 271.503 129.453C270.446 130.985 269.298 132.463 267.917 133.742Z" fill="#E6E6E6"/>
<path d="M265.615 135.897C266.717 134.378 267.858 132.948 268.987 131.513C270.118 130.085 271.248 128.67 272.351 127.241C273.442 125.804 274.521 124.365 275.552 122.885C276.571 121.395 277.524 119.874 278.479 118.252C278.275 120.123 277.633 121.927 276.832 123.63C275.999 125.319 274.977 126.902 273.843 128.39C272.698 129.869 271.431 131.246 270.069 132.516C268.695 133.774 267.246 134.957 265.615 135.897Z" fill="#E6E6E6"/>
<path d="M269.078 133.431C270.157 132.075 271.242 130.796 272.302 129.501C273.365 128.214 274.399 126.922 275.405 125.614C276.412 124.306 277.346 122.958 278.263 121.583C279.178 120.201 279.968 118.757 280.834 117.245C280.728 118.974 280.263 120.685 279.568 122.283C278.851 123.869 277.962 125.384 276.902 126.756C275.843 128.13 274.657 129.398 273.357 130.533C272.048 131.653 270.651 132.685 269.078 133.431Z" fill="#E6E6E6"/>
<path d="M266.311 135.007C266.98 133.678 267.209 132.322 267.171 131.027C267.12 129.725 266.743 128.468 266.184 127.262L265.994 126.802L265.748 126.361L265.275 125.463C264.897 124.892 264.553 124.294 264.165 123.712C263.749 123.15 263.376 122.544 262.958 121.961C262.538 121.379 262.109 120.796 261.729 120.141C262.388 120.484 263 120.899 263.62 121.314C264.222 121.748 264.755 122.268 265.309 122.773C265.591 123.02 265.813 123.328 266.061 123.611C266.305 123.899 266.543 124.193 266.774 124.493L267.381 125.469L267.67 125.967L267.906 126.5C268.554 127.9 268.892 129.534 268.643 131.121C268.389 132.688 267.585 134.191 266.311 135.007Z" fill="#E6E6E6"/>
<path d="M267.362 133.2C267.837 131.726 268.169 130.294 268.313 128.881C268.457 127.471 268.371 126.093 268.013 124.794C267.841 124.143 267.596 123.51 267.281 122.903C266.976 122.291 266.607 121.7 266.183 121.131C265.346 119.982 264.317 118.921 263.226 117.811C264.72 118.249 266.107 119.048 267.286 120.143C267.88 120.685 268.401 121.323 268.835 122.024C269.277 122.72 269.61 123.494 269.829 124.298C270.273 125.909 270.216 127.628 269.759 129.17C269.296 130.709 268.505 132.13 267.362 133.2Z" fill="#E6E6E6"/>
<path d="M270.128 131.86L278.983 123.359L278.628 131.696L270.128 131.86Z" fill="#E6E6E6"/>
<path d="M260.448 130.958H283.979L280.897 148.438H263.53L260.448 130.958Z" fill="#F5F5F5"/>
<path d="M275.148 130.958H283.979L280.897 148.438H276.26L275.148 130.958Z" fill="#EBEBEB"/>
<path d="M113.792 51.3481V143.01C113.792 150.951 107.354 157.389 99.4122 157.389H166.22C174.162 157.389 180.6 150.951 180.6 143.01V51.3481H113.792Z" fill="#F5F5F5"/>
<path d="M170.102 74.5564H126.947V117.711H170.102V74.5564Z" fill="#F0F0F0"/>
<path d="M168.773 73.2279H125.619V116.383H168.773V73.2279Z" fill="white"/>
<path d="M136.219 122.774H125.243V133.751H136.219V122.774Z" fill="white"/>
<path d="M168.773 122.774H157.797V133.751H168.773V122.774Z" fill="white"/>
<path d="M152.496 122.774H141.52V133.751H152.496V122.774Z" fill="white"/>
<path d="M113.792 51.3481V62.26H180.6V51.3481H113.792Z" fill="#F0F0F0"/>
<path d="M117.803 47.844V54.8528C117.803 55.9304 118.677 56.8043 119.755 56.8043C120.832 56.8043 121.706 55.9304 121.706 54.8528V47.844C121.706 46.7663 120.832 45.8924 119.755 45.8924C118.676 45.8924 117.803 46.7657 117.803 47.844Z" fill="#E6E6E6"/>
<path d="M172.685 47.844V54.8528C172.685 55.9304 173.559 56.8043 174.637 56.8043C175.715 56.8043 176.589 55.9304 176.589 54.8528V47.844C176.589 46.7663 175.715 45.8924 174.637 45.8924C173.559 45.8924 172.685 46.7657 172.685 47.844Z" fill="#E6E6E6"/>
<path d="M161.709 47.844V54.8528C161.709 55.9304 162.583 56.8043 163.66 56.8043C164.738 56.8043 165.612 55.9304 165.612 54.8528V47.844C165.612 46.7663 164.738 45.8924 163.66 45.8924C162.583 45.8924 161.709 46.7657 161.709 47.844Z" fill="#E6E6E6"/>
<path d="M150.733 47.844V54.8528C150.733 55.9304 151.606 56.8043 152.684 56.8043C153.762 56.8043 154.636 55.9304 154.636 54.8528V47.844C154.636 46.7663 153.762 45.8924 152.684 45.8924C151.606 45.8924 150.733 46.7657 150.733 47.844Z" fill="#E6E6E6"/>
<path d="M139.756 47.844V54.8528C139.756 55.9304 140.63 56.8043 141.708 56.8043C142.785 56.8043 143.659 55.9304 143.659 54.8528V47.844C143.659 46.7663 142.785 45.8924 141.708 45.8924C140.629 45.8924 139.756 46.7657 139.756 47.844Z" fill="#E6E6E6"/>
<path d="M128.78 47.844V54.8528C128.78 55.9304 129.654 56.8043 130.731 56.8043C131.809 56.8043 132.683 55.9304 132.683 54.8528V47.844C132.683 46.7663 131.809 45.8924 130.731 45.8924C129.653 45.8924 128.78 46.7657 128.78 47.844Z" fill="#E6E6E6"/>
<path d="M160.204 151.373C160.204 154.696 162.898 157.389 166.22 157.389H160.204H91.0478C87.7254 157.389 85.0318 154.696 85.0318 151.373H160.204Z" fill="#E6E6E6"/>
<path d="M196.5 242C257.108 242 306.241 239.13 306.241 235.591C306.241 232.051 257.108 229.182 196.5 229.182C135.891 229.182 86.7587 232.051 86.7587 235.591C86.7587 239.13 135.891 242 196.5 242Z" fill="#F5F5F5"/>
<path opacity="0.2" d="M207.589 181.533C207.589 181.533 165.991 206.091 165.991 229.36H249.187C249.187 206.091 207.589 181.533 207.589 181.533Z" fill="#469FD1"/>
<path opacity="0.2" d="M207.589 210.835C207.589 210.835 169.181 220.347 169.181 229.36H245.997C245.997 220.347 207.589 210.835 207.589 210.835Z" fill="#469FD1"/>
<path opacity="0.3" d="M212.639 188.316C220.446 195.993 235.629 213.015 235.629 229.36H225.222C225.222 213.014 216.909 195.993 212.639 188.316Z" fill="white"/>
<path opacity="0.2" d="M207.589 181.533C207.589 181.533 165.991 156.976 165.991 133.707H249.187C249.187 156.976 207.589 181.533 207.589 181.533Z" fill="#469FD1"/>
<path opacity="0.2" d="M207.589 179.29C207.589 179.29 186.351 169.089 186.351 159.424H228.828C228.828 169.089 207.589 179.29 207.589 179.29Z" fill="#469FD1"/>
<path opacity="0.3" d="M203.054 174.75C195.247 167.073 180.064 150.052 180.064 133.707H190.471C190.471 150.052 198.784 167.073 203.054 174.75Z" fill="white"/>
<path opacity="0.3" d="M212.639 174.75C220.446 167.073 235.248 148.083 235.629 133.707H232.852C231.552 151.233 218.817 167.322 212.639 174.75Z" fill="white"/>
<path d="M243.544 125.495H238.827V126.061H243.544V125.495Z" fill="#469FD1"/>
<path d="M259.549 133.271H258.983C258.983 129.295 255.748 126.061 251.773 126.061H246.799V125.495H251.773C256.061 125.495 259.549 128.983 259.549 133.271Z" fill="#469FD1"/>
<path d="M251.773 139.938H163.406C160.218 139.938 157.61 137.33 157.61 134.143V133.27C157.61 130.083 160.218 127.475 163.406 127.475H251.773C254.961 127.475 257.569 130.083 257.569 133.27V134.143C257.568 137.33 254.961 139.938 251.773 139.938Z" fill="#469FD1"/>
<path d="M251.773 223.129H163.406C160.218 223.129 157.61 225.736 157.61 228.924V229.796C157.61 232.983 160.218 235.591 163.406 235.591H251.773C254.961 235.591 257.569 232.984 257.569 229.796V228.924C257.568 225.736 254.961 223.129 251.773 223.129Z" fill="#469FD1"/>
<path d="M134.648 172.358L130.811 168.952L137.351 158.902L141.188 162.308L134.648 172.358Z" fill="#FF8B7B"/>
<path d="M131.602 166.791L136.483 170.176C136.661 170.3 136.709 170.516 136.6 170.697L134.157 174.722C133.904 175.14 133.265 175.258 132.861 174.968C131.182 173.76 130.535 173.174 128.501 171.535C127.25 170.526 124.269 168.1 122.73 166.502C121.224 164.939 122.815 163.426 123.61 163.966C125.492 165.246 128.774 166.651 130.669 166.539C131.011 166.518 131.342 166.611 131.602 166.791Z" fill="#263238"/>
<path opacity="0.2" d="M141.187 162.312L137.348 158.904L134.201 163.745L138.134 167.007L141.187 162.312Z" fill="black"/>
<path d="M180.226 112.125C180.226 112.125 154.474 110.367 151.28 119.094C144.02 138.934 134.571 159.987 134.571 159.987L142.184 165.48C142.184 165.48 158.234 140.948 163.11 125.195C173.015 127.598 190.923 129.656 196.693 123.035C201.615 117.387 197.931 112.125 197.931 112.125L180.226 112.125Z" fill="#263238"/>
<path opacity="0.3" d="M158.168 127.551C157.569 129.969 156.659 136.911 156.094 141.514C157.341 139.091 158.534 136.634 159.604 134.233L158.168 127.551Z" fill="black"/>
<path d="M141.678 167.966L133.065 161.218L134.826 157.439L144.453 164.792L141.678 167.966Z" fill="#469FD1"/>
<path d="M129.538 166.479C129.939 166.758 130.44 166.983 130.803 167.127C130.848 167.145 130.9 167.135 130.934 167.101C130.97 167.066 130.98 167.015 130.964 166.97C130.892 166.778 130.245 165.084 129.57 164.924C129.414 164.887 129.264 164.929 129.136 165.047C128.925 165.241 128.839 165.456 128.882 165.685C128.935 165.975 129.201 166.246 129.538 166.479ZM130.627 166.787C129.742 166.403 129.187 165.982 129.123 165.639C129.097 165.497 129.155 165.363 129.302 165.228C129.37 165.166 129.437 165.145 129.513 165.163C129.876 165.249 130.345 166.117 130.627 166.787Z" fill="#469FD1"/>
<path d="M130.778 167.114C130.794 167.125 130.813 167.132 130.833 167.135C130.874 167.14 130.916 167.124 130.943 167.091C130.984 167.041 131.949 165.86 131.803 165.133C131.764 164.937 131.652 164.789 131.472 164.694C131.255 164.579 131.049 164.597 130.893 164.745C130.463 165.149 130.482 166.505 130.736 167.063C130.746 167.084 130.76 167.101 130.778 167.114ZM131.406 164.941C131.49 164.999 131.541 165.078 131.562 165.181C131.649 165.614 131.188 166.355 130.89 166.759C130.733 166.178 130.78 165.19 131.061 164.924C131.114 164.874 131.197 164.827 131.357 164.911C131.375 164.921 131.391 164.931 131.406 164.941Z" fill="#469FD1"/>
<path d="M168.484 178.297L163.53 179.289L162.614 166.024L167.646 166.184L168.484 178.297Z" fill="#FF8B7B"/>
<path d="M162.857 177.475L168.502 175.09C168.708 175.004 168.923 175.081 169.02 175.276L171.181 179.627C171.405 180.079 171.155 180.701 170.679 180.893C168.699 181.689 167.711 181.971 165.228 183.019C163.7 183.665 159.584 185.535 157.361 186.085C155.187 186.624 154.657 184.421 155.55 183.99C157.665 182.969 161.173 179.864 162.121 178.15C162.293 177.841 162.556 177.603 162.857 177.475Z" fill="#263238"/>
<path d="M161.445 179.104C161.909 178.908 162.383 178.595 162.709 178.358C162.749 178.329 162.769 178.279 162.758 178.229C162.748 178.18 162.709 178.142 162.661 178.132C162.453 178.088 160.62 177.716 160.107 178.216C159.988 178.332 159.943 178.486 159.975 178.663C160.028 178.954 160.167 179.147 160.39 179.236C160.673 179.35 161.056 179.268 161.445 179.104ZM162.315 178.325C161.491 178.883 160.818 179.135 160.484 179.001C160.346 178.945 160.261 178.82 160.224 178.618C160.208 178.524 160.227 178.455 160.284 178.399C160.56 178.129 161.575 178.199 162.315 178.325Z" fill="#469FD1"/>
<path d="M162.683 178.373C162.701 178.365 162.718 178.353 162.731 178.337C162.759 178.304 162.768 178.258 162.755 178.216C162.734 178.152 162.236 176.659 161.522 176.385C161.33 176.311 161.14 176.327 160.957 176.431C160.737 176.557 160.639 176.747 160.682 176.965C160.797 177.562 161.99 178.295 162.616 178.381C162.64 178.385 162.662 178.381 162.683 178.373ZM161.136 176.625C161.233 176.584 161.33 176.583 161.431 176.622C161.856 176.786 162.247 177.596 162.435 178.079C161.842 177.894 161.007 177.308 160.931 176.916C160.916 176.842 160.921 176.744 161.082 176.651C161.101 176.642 161.118 176.633 161.136 176.625Z" fill="#469FD1"/>
<path opacity="0.2" d="M167.648 166.187L162.613 166.028L163.094 172.954L168.112 172.863L167.648 166.187Z" fill="black"/>
<path d="M192.739 112.125C192.739 112.125 155.933 115.604 157.273 126.683C159.206 142.662 160.622 170.637 160.622 170.637L170.003 171.006C170.003 171.006 173.519 146.407 171.462 130.045C180.987 130.045 201.677 130.546 205.318 125.625C209.64 119.785 207.638 112.125 207.638 112.125H192.739Z" fill="#263238"/>
<path d="M171.038 171.583L159.78 171.025L159.375 166.125L171.722 166.977L171.038 171.583Z" fill="#469FD1"/>
<path d="M184.568 79.6877C184.487 80.7003 184.4 81.6019 184.276 82.5477C184.158 83.4822 184.028 84.4138 183.886 85.3449C183.61 87.2087 183.24 89.0624 182.821 90.9234C182.379 92.7798 181.887 94.6431 181.239 96.512C180.579 98.3793 179.839 100.262 178.675 102.176C178.082 103.13 177.391 104.105 176.394 105.054C176.127 105.308 175.899 105.487 175.667 105.669C175.434 105.861 175.2 106.021 174.966 106.187C174.498 106.516 174.027 106.806 173.555 107.065C171.668 108.107 169.797 108.816 167.922 109.371C166.988 109.655 166.051 109.891 165.116 110.097C164.182 110.309 163.247 110.488 162.31 110.634C160.429 110.937 158.592 111.136 156.646 111.201C155.576 111.237 154.68 110.398 154.644 109.329C154.615 108.45 155.175 107.688 155.969 107.425L156.045 107.4C159.353 106.302 162.743 105.113 165.792 103.687C167.313 102.968 168.771 102.189 169.972 101.321C170.27 101.103 170.551 100.883 170.806 100.665C170.932 100.555 171.064 100.447 171.17 100.337C171.285 100.226 171.403 100.112 171.457 100.046C171.749 99.7139 172.099 99.1819 172.414 98.5689C173.055 97.3288 173.612 95.7994 174.063 94.2169C174.52 92.6287 174.917 90.9692 175.247 89.2808C175.597 87.5958 175.87 85.8769 176.147 84.1546C176.415 82.4469 176.633 80.655 176.827 79.0125L176.838 78.9202C177.091 76.7898 179.023 75.2684 181.153 75.5208C183.232 75.767 184.731 77.6201 184.568 79.6877Z" fill="#469FD1"/>
<path d="M156.776 106.418L153.94 106.597L156.205 111.805C156.205 111.805 161.102 111.693 161.001 109.282L160.116 108.13C159.359 107.142 158.125 106.509 156.776 106.418Z" fill="#FF8B7B"/>
<path d="M150.846 107.015L153.293 111.804H156.205L153.939 106.596L150.846 107.015Z" fill="#FF8B7B"/>
<path d="M184.161 71.6618L189.636 70.5406L193.99 69.91C194.614 69.8195 195.247 69.7702 195.875 69.8274C199.259 70.1342 202.167 72.4989 203.089 75.8497C204.178 79.8088 205.164 84.6708 205.922 88.9797C206.974 94.9618 207.523 103.952 207.638 112.124H181.688C181.144 97.326 177.975 87.7798 176.906 81.873C176.241 78.2019 178.117 74.5411 181.485 72.9365L184.161 71.6618Z" fill="#469FD1"/>
<path d="M181.688 74.9158C181.749 77.3496 182.242 86.0292 184.861 90.9585C185.323 86.3371 190.807 72.2663 190.807 72.2663L181.688 74.9158Z" fill="#F5F5F5"/>
<path opacity="0.3" d="M206.51 93.0397C206.511 93.0402 206.511 93.0408 206.512 93.0419C206.501 92.9497 206.489 92.8614 206.478 92.7702C206.461 92.631 206.443 92.4957 206.426 92.3582C206.398 92.1391 206.369 91.9218 206.34 91.7073C206.313 91.5035 206.285 91.3009 206.257 91.1017C206.228 90.9036 206.199 90.7106 206.171 90.517C206.146 90.3568 206.123 90.1944 206.098 90.0382C206.042 89.6776 205.984 89.3244 205.924 88.9831C205.738 87.9225 205.536 86.8272 205.324 85.7218C205.318 85.6907 205.312 85.6596 205.306 85.6285C205.093 84.5225 204.869 83.4069 204.634 82.2998C204.629 82.2755 204.623 82.2511 204.618 82.2262C204.518 81.7547 204.415 81.2867 204.311 80.8214C204.272 80.646 204.233 80.4728 204.193 80.2984C204.124 79.9967 204.055 79.6979 203.985 79.4007C203.93 79.1647 203.874 78.9298 203.818 78.6966C203.806 78.6491 203.796 78.5999 203.784 78.5523H203.783C203.557 77.6207 203.325 76.7117 203.088 75.8502L199.154 73.7787C199.606 75.5186 200.039 77.4265 200.447 79.3866C199.957 79.6424 199.538 79.9498 199.156 80.3075C198.217 81.148 198.248 82.932 199.188 85.0404C201.863 91.0417 203.183 97.5665 203.469 104.131C203.585 106.797 203.659 109.498 203.694 112.119L207.639 112.125C207.544 105.638 207.181 98.6431 206.51 93.0397Z" fill="black"/>
<path d="M187.595 60.7544L185.375 64.1425L182.354 68.7605C182.562 68.8686 183.023 69.5931 183.288 70.1274C183.84 71.2396 184.296 72.0716 181.962 73.6632C181.462 74.0039 181.444 74.5439 181.558 75.1382C181.695 75.8593 182.118 76.6172 184.638 76.1717C187.557 75.6567 189.511 74.1137 190.963 72.6608C191.803 71.8214 191.61 71.1892 190.801 70.3198C188.51 67.8577 187.824 63.9257 187.595 60.7544Z" fill="#FF8B7B"/>
<path d="M182.253 76.2566L183.858 77.263L186.461 76.1587C185.827 75.5882 185.126 75.1082 184.169 74.9774C183.409 75.1971 182.809 75.69 182.253 76.2566Z" fill="#263238"/>
<path d="M184.168 74.9774C185.362 75.4704 185.963 76.5792 186.503 77.8618C186.503 77.8618 192.228 73.5217 192.348 70.6645C192.04 69.6938 190.607 69.8636 190.607 69.8636C190.607 69.8636 188.866 72.8821 184.168 74.9774Z" fill="white"/>
<path d="M184.168 74.9774C182.974 75.4704 182.354 76.5317 182.354 77.8154C182.354 77.8154 179.809 74.8258 181.881 72.5691C182.354 72.2301 183.656 71.9024 183.656 71.9024C183.656 71.9024 183.035 73.1442 184.168 74.9774Z" fill="white"/>
<path d="M184.359 76.7937C184.359 76.7937 183.921 76.7937 183.627 76.7937C183.394 77.2041 183.061 82.5109 182.934 85.3336C183.316 87.0417 183.815 88.7109 184.464 90.1412C184.475 90.1576 184.48 90.1802 184.492 90.1966C184.53 90.2855 184.569 90.3744 184.613 90.457C184.691 90.6291 184.774 90.7955 184.863 90.9562C184.985 89.7472 185.451 87.8783 186.078 85.7881C185.312 82.5166 184.359 76.7937 184.359 76.7937Z" fill="#263238"/>
<path opacity="0.2" d="M183.098 67.6257L184.951 64.335C184.989 64.417 185.033 64.5116 185.078 64.6061C185.222 64.9593 185.367 65.4002 185.475 65.8671C185.816 67.3297 184.68 69.4165 183.432 70.4127C183.382 70.3181 183.338 70.2236 183.287 70.1291C183.054 69.6497 182.657 69.0197 182.43 68.8177C182.405 68.7922 182.379 68.7735 182.354 68.7611L183.098 67.6257Z" fill="black"/>
<path d="M174.053 60.5535C173.605 58.5397 176.802 55.7646 176.802 55.7646L173.015 54.4413C171.308 55.6803 172.417 59.1861 174.053 60.5535Z" fill="#263238"/>
<path d="M186.813 54.7566C187.705 59.7787 188.479 62.6641 186.62 65.8869C183.825 70.7342 177.241 70.1535 174.884 65.549C172.763 61.4042 171.661 53.8877 175.975 50.5897C180.224 47.3403 185.921 49.7344 186.813 54.7566Z" fill="#FF8B7B"/>
<path d="M186.881 59.8386L184.506 59.1877V56.1285C184.506 56.1285 181.499 54.4067 181.968 52.308C182.174 50.893 182.934 48.8016 182.934 48.8016C182.934 48.8016 187.699 48.4954 189.145 49.1045C188.894 49.4622 187.919 50.2483 187.919 50.2483C187.919 50.2483 189.796 51.506 190.807 53.204C190.088 53.2668 189.176 53.9902 189.176 53.9902C189.176 53.9902 189.805 58.1723 186.881 59.8386Z" fill="#263238"/>
<path d="M181.41 45.5415C183.159 46.6361 182.145 48.6528 182.145 48.6528L186.828 48.753C186.579 47.2729 182.521 45.4651 181.41 45.5415Z" fill="#263238"/>
<path d="M183.236 53.3376C182.904 54.2817 179.113 55.4335 175.655 55.5467C173.329 55.6231 170.607 54.5986 170.607 54.5986C170.607 54.5986 171.218 53.9115 172.323 53.3925C170.232 52.8735 167.586 51.039 166.861 49.5499C168.75 48.8792 170.176 48.9845 171.568 49.2182C169.8 47.7087 169.776 45.7045 169.776 45.7045C169.776 45.7045 178.625 49.2154 182.032 47.7596C185.738 46.1765 188.549 49.1458 186.115 51.412C183.681 53.6783 183.236 53.3376 183.236 53.3376Z" fill="#263238"/>
<path d="M189.518 58.3948C189.572 59.6003 189.118 60.7233 188.505 61.4506C187.583 62.5447 186.162 61.6719 185.833 60.3067C185.537 59.0779 185.92 57.1807 187.127 56.5926C188.316 56.0147 189.456 57.0166 189.518 58.3948Z" fill="#FF8B7B"/>
<path d="M179.155 59.404C179.285 59.7968 179.183 60.1913 178.93 60.2841C178.676 60.3769 178.366 60.1341 178.237 59.7407C178.108 59.3479 178.209 58.9534 178.463 58.8606C178.716 58.7678 179.026 59.0111 179.155 59.404Z" fill="#263238"/>
<path d="M174.768 61.0137C174.897 61.4065 174.796 61.801 174.543 61.8938C174.289 61.9866 173.979 61.7438 173.85 61.3504C173.721 60.9576 173.822 60.5631 174.076 60.4703C174.329 60.3775 174.639 60.6209 174.768 61.0137Z" fill="#263238"/>
<path d="M176.268 60.8059C176.268 60.8059 176.298 63.015 175.861 64.2823C176.648 64.5681 177.515 63.8912 177.515 63.8912L176.268 60.8059Z" fill="#A02724"/>
<path d="M178.955 65.4019C180.494 64.8693 181.022 63.6122 181.046 63.5539C181.071 63.4922 181.041 63.4214 180.98 63.396C180.917 63.3705 180.847 63.4005 180.822 63.4627C180.816 63.4769 180.216 64.9094 178.44 65.2949C178.373 65.309 178.333 65.3736 178.347 65.4392C178.361 65.5049 178.426 65.5462 178.492 65.5315C178.655 65.4958 178.809 65.4522 178.955 65.4019Z" fill="#263238"/>
<path d="M180.13 57.1077C180.165 57.089 180.195 57.0613 180.218 57.0251C180.291 56.9124 180.258 56.7619 180.145 56.6894C179.029 55.9723 178.006 56.4449 177.964 56.4658C177.845 56.5089 177.791 56.6679 177.849 56.789C177.907 56.9102 178.051 56.9611 178.172 56.9039C178.215 56.8847 179.006 56.5343 179.883 57.0975C179.96 57.1479 180.055 57.1484 180.13 57.1077Z" fill="#263238"/>
<path d="M173.899 58.6319C173.904 58.5923 173.898 58.551 173.882 58.5119C173.831 58.388 173.688 58.3291 173.565 58.3806C172.339 58.8895 172.145 59.9988 172.138 60.0458C172.105 60.1686 172.205 60.3028 172.338 60.3243C172.47 60.3458 172.595 60.2563 172.616 60.1245C172.625 60.0786 172.788 59.2285 173.751 58.8295C173.835 58.7938 173.889 58.7168 173.899 58.6319Z" fill="#263238"/>
<path d="M201.88 73.4119C202.505 74.18 203.049 74.8739 203.603 75.6193C204.155 76.3523 204.688 77.0966 205.213 77.8499C206.267 79.3504 207.257 80.9029 208.219 82.4905C209.156 84.0963 210.072 85.7286 210.879 87.4742C211.683 89.2197 212.432 91.0405 212.944 93.1245C213.19 94.1728 213.38 95.3019 213.386 96.5913C213.376 97.8637 213.174 98.9826 212.885 100.039C212.297 102.137 211.431 103.944 210.442 105.609C209.954 106.445 209.428 107.242 208.879 108.011C208.335 108.783 207.765 109.527 207.17 110.245C205.978 111.693 204.749 113.017 203.328 114.31C202.537 115.03 201.311 114.972 200.591 114.181C200.004 113.535 199.934 112.601 200.357 111.888L200.408 111.804C202.123 108.921 203.819 105.872 205.011 102.893C205.603 101.403 206.078 99.912 206.274 98.5621C206.367 97.8965 206.407 97.2518 206.351 96.7577C206.307 96.2811 206.176 95.6602 205.963 95.0042C205.534 93.6798 204.889 92.2365 204.126 90.8187C203.372 89.3946 202.521 87.9632 201.618 86.5544C200.722 85.136 199.764 83.7403 198.791 82.3479L197.306 80.2769C196.809 79.6028 196.289 78.8868 195.817 78.2699L195.782 78.2246C194.479 76.5204 194.804 74.0826 196.508 72.7791C198.178 71.4994 200.559 71.792 201.88 73.4119Z" fill="#469FD1"/>
<path d="M147.956 115.165L196.111 112.985C196.743 112.956 197.283 113.45 197.312 114.082L146.858 116.366C146.83 115.733 147.324 115.193 147.956 115.165Z" fill="#469FD1"/>
<g opacity="0.6">
<path d="M147.956 115.165L196.111 112.985C196.743 112.956 197.283 113.45 197.312 114.082L146.858 116.366C146.83 115.733 147.324 115.193 147.956 115.165Z" fill="white"/>
</g>
<path d="M140.29 92.8212L174.549 91.2704C174.968 91.2517 175.414 91.5715 175.545 91.9858L182.121 112.858C182.252 113.271 182.018 113.623 181.599 113.642L147.34 115.192C146.92 115.212 146.475 114.891 146.345 114.477L139.768 93.6051C139.637 93.1914 139.871 92.8404 140.29 92.8212Z" fill="#469FD1"/>
<path opacity="0.6" d="M140.29 92.8212L174.549 91.2704C174.968 91.2517 175.414 91.5715 175.545 91.9858L182.121 112.858C182.252 113.271 182.018 113.623 181.599 113.642L147.34 115.192C146.92 115.212 146.475 114.891 146.345 114.477L139.768 93.6051C139.637 93.1914 139.871 92.8404 140.29 92.8212Z" fill="white"/>
<path opacity="0.5" d="M175.545 91.9857L182.122 112.858C182.252 113.272 182.018 113.623 181.599 113.641L174.55 91.2703C174.968 91.2511 175.414 91.5714 175.545 91.9857Z" fill="#469FD1"/>
<path opacity="0.5" d="M183.448 113.558L196.111 112.985C196.743 112.956 197.283 113.45 197.312 114.082L182.35 114.759C182.321 114.127 182.815 113.587 183.448 113.558Z" fill="#469FD1"/>
<path d="M199.444 111.659L196.206 112.133L199.523 116.743C199.523 116.743 204.79 115.898 204.181 113.563L203.073 112.625C202.122 111.819 200.782 111.463 199.444 111.659Z" fill="#FF8B7B"/>
<path d="M192.244 113.51L196.304 117.051L199.522 116.742L196.206 112.133L192.244 113.51Z" fill="#FF8B7B"/>
<g filter="url(#filter0_d_11_1739)">
<path fill-rule="evenodd" clip-rule="evenodd" d="M402 169C356.155 213.732 277.205 243.265 187.5 243.265C106.923 243.265 35.0237 219.437 -12 182.168L-12 387.265H402V169Z" fill="#469FD1"/>
</g>
<defs>
<filter id="filter0_d_11_1739" x="-126" y="59" width="642" height="446.265" filterUnits="userSpaceOnUse" color-interpolation-filters="sRGB">
<feFlood flood-opacity="0" result="BackgroundImageFix"/>
<feColorMatrix in="SourceAlpha" type="matrix" values="0 0 0 0 0 0 0 0 0 0 0 0 0 0 0 0 0 0 127 0" result="hardAlpha"/>
<feOffset dy="4"/>
<feGaussianBlur stdDeviation="57"/>
<feComposite in2="hardAlpha" operator="out"/>
<feColorMatrix type="matrix" values="0 0 0 0 0.231373 0 0 0 0 0.34902 0 0 0 0 0.596078 0 0 0 0.27 0"/>
<feBlend mode="normal" in2="BackgroundImageFix" result="effect1_dropShadow_11_1739"/>
<feBlend mode="normal" in="SourceGraphic" in2="effect1_dropShadow_11_1739" result="shape"/>
</filter>
</defs>
</svg>
